<?xml version="1.0" standalone="no"?>
<!DOCTYPE svg PUBLIC "-//W3C//DTD SVG 20010904//EN"
 "http://www.w3.org/TR/2001/REC-SVG-20010904/DTD/svg10.dtd">
<svg version="1.0" xmlns="http://www.w3.org/2000/svg"
 width="500.000000pt" height="500.000000pt" viewBox="0 0 500.000000 500.000000"
 preserveAspectRatio="xMidYMid meet">
<metadata>
Created by potrace 1.11, written by Peter Selinger 2001-2013
</metadata>
<g transform="translate(0.000000,500.000000) scale(0.100000,-0.100000)"
fill="#000000" stroke="none">
<path d="M2030 4953 c-72 -12 -298 -75 -385 -108 -145 -53 -384 -173 -505
-252 -139 -92 -286 -210 -388 -313 l-83 -84 23 -18 c13 -10 32 -18 43 -19 11
0 14 -3 8 -6 -24 -9 -13 -34 23 -49 24 -10 34 -20 30 -29 -3 -8 -1 -17 5 -20
5 -4 8 -18 7 -33 -1 -15 2 -41 6 -59 5 -22 3 -39 -9 -56 -9 -14 -17 -45 -19
-69 -2 -49 -11 -68 -30 -68 -23 0 -37 -26 -57 -102 -27 -106 -25 -133 12 -160
17 -13 31 -21 32 -19 1 2 31 -12 67 -32 54 -29 72 -34 108 -30 38 4 43 3 40
-13 -2 -13 4 -19 20 -20 31 -2 36 -9 22 -34 -6 -11 -8 -29 -5 -40 5 -15 -3
-23 -36 -40 -24 -11 -48 -20 -54 -20 -18 0 -61 -51 -88 -105 -105 -207 -100
-192 -92 -264 4 -36 15 -80 26 -97 10 -17 19 -41 19 -53 0 -12 11 -39 25 -61
33 -52 32 -94 -6 -168 -69 -133 -158 -177 -255 -126 -30 16 -56 23 -71 19 -19
-4 -23 -1 -23 18 0 13 -8 32 -19 41 -11 10 -21 38 -25 68 -4 27 -14 60 -22 73
-8 12 -15 35 -15 51 -1 40 19 128 36 161 8 15 15 35 15 43 0 8 7 24 15 34 27
36 19 64 -25 86 -27 14 -42 29 -46 48 -3 15 -8 35 -11 44 -2 10 -1 23 3 30 4
6 8 49 8 94 1 46 5 86 9 90 13 13 8 61 -8 74 -8 7 -15 20 -15 29 0 9 -5 22
-11 28 -15 15 -15 89 0 106 14 18 4 137 -13 155 -10 10 -23 -10 -68 -105 -142
-300 -214 -577 -239 -917 -23 -325 31 -698 146 -1012 46 -125 169 -375 235
-477 49 -76 52 -78 87 -75 22 2 41 10 49 23 11 17 9 25 -15 60 -17 25 -34 39
-44 37 -10 -2 -21 6 -26 21 -5 13 -24 37 -43 53 -58 51 -71 80 -71 158 -1 61
4 81 35 146 39 82 63 104 150 139 50 20 71 22 190 20 260 -5 494 0 588 13 l95
12 64 62 64 62 -21 30 c-12 16 -22 39 -22 50 0 11 -16 44 -36 73 -48 71 -154
293 -154 321 0 13 -13 57 -30 98 -36 91 -39 156 -9 194 28 35 80 36 115 1 14
-14 38 -28 52 -31 21 -5 33 -18 52 -61 40 -89 44 -96 57 -100 8 -3 8 7 -1 39
-16 56 -16 57 17 100 16 20 26 42 22 48 -8 14 -41 13 -65 -2 -16 -10 -23 -9
-43 10 -13 12 -29 22 -35 22 -15 0 -16 17 -1 25 7 5 3 15 -11 30 -19 20 -21
30 -14 62 12 55 12 54 13 96 1 37 2 38 29 32 l28 -6 2 107 c2 115 6 125 57
150 18 8 52 35 75 60 33 36 41 50 36 69 -5 19 -1 28 17 40 14 8 31 13 39 10 9
-4 22 0 29 7 39 39 65 48 130 48 37 0 86 7 110 16 34 11 79 14 194 13 240 -4
284 1 331 38 70 57 220 68 352 26 64 -20 94 -36 132 -70 43 -39 52 -43 71 -33
15 9 24 9 32 1 6 -6 19 -11 29 -11 9 0 22 -9 28 -20 6 -10 16 -17 24 -14 10 4
15 -8 19 -43 3 -26 11 -68 18 -93 7 -25 12 -66 12 -91 0 -41 4 -48 33 -68 18
-13 32 -26 31 -30 -1 -3 2 -8 8 -11 5 -3 16 7 23 23 14 30 36 35 49 12 5 -8 4
-51 -1 -95 -9 -76 -11 -81 -30 -75 -53 16 -409 23 -428 8 -21 -17 -69 -26
-124 -24 -62 3 -133 -15 -140 -34 -3 -8 -22 -17 -42 -20 -21 -4 -47 -11 -59
-17 -16 -8 -34 -8 -60 -1 -182 52 -278 67 -368 58 -72 -6 -77 -8 -55 -20 l23
-12 -27 -19 c-23 -14 -32 -15 -47 -6 -23 14 -61 15 -126 3 -26 -6 -75 -15
-108 -21 -33 -7 -70 -18 -82 -26 -12 -8 -29 -14 -38 -14 -25 0 -17 -20 23 -59
30 -29 42 -52 56 -107 30 -114 59 -185 91 -219 38 -41 96 -54 278 -62 l138 -6
-25 -24 c-14 -13 -26 -33 -26 -44 0 -12 -11 -34 -25 -51 -14 -16 -25 -38 -25
-49 0 -10 -4 -19 -8 -19 -12 0 -62 -105 -62 -129 0 -13 6 -21 17 -21 15 0 15
-2 1 -17 -25 -29 -33 -91 -26 -215 2 -47 6 -58 21 -58 9 0 17 -5 17 -10 0 -6
-15 -9 -32 -8 -29 3 -34 -1 -44 -30 -20 -63 -64 -60 -64 4 0 29 -5 36 -32 47
-18 8 -39 21 -46 29 -7 10 -21 14 -33 11 -17 -5 -20 -11 -15 -34 3 -16 1 -31
-4 -34 -6 -3 -10 1 -10 9 0 9 -4 16 -10 16 -5 0 -10 7 -10 15 0 8 5 15 10 15
6 0 10 9 10 20 0 11 -4 20 -10 20 -5 0 -10 6 -10 13 0 8 -9 22 -20 32 -11 10
-20 29 -20 42 0 14 -6 31 -14 39 -9 9 -14 31 -13 59 2 40 0 45 -18 43 -11 -2
-21 -12 -23 -22 -5 -24 17 -95 35 -117 7 -8 13 -21 13 -27 0 -23 43 -137 61
-164 11 -14 19 -31 19 -37 0 -6 14 -37 32 -69 37 -66 247 -282 274 -282 3 0
35 -13 70 -30 100 -47 187 -86 209 -95 11 -4 79 -15 150 -25 l130 -17 34 26
c23 16 47 25 69 24 36 -1 37 -1 161 131 24 26 50 45 57 42 7 -3 16 -1 19 4 4
6 1 10 -6 10 -7 0 -4 9 8 23 12 12 33 44 48 71 15 26 45 76 66 109 21 33 39
66 39 73 0 18 30 45 41 38 5 -3 7 -14 4 -24 -10 -30 12 -32 59 -5 32 18 43 31
39 43 -3 13 4 22 23 30 14 7 29 10 32 7 3 -2 11 0 18 6 8 6 40 13 71 15 37 3
68 11 86 25 22 16 34 18 60 11 17 -5 37 -7 44 -5 6 2 23 -3 37 -12 19 -13 29
-14 45 -5 17 9 21 8 21 -5 0 -8 7 -15 15 -15 8 0 15 -4 15 -10 0 -14 -13 -13
-28 2 -16 16 -25 4 -17 -22 6 -19 11 -20 83 -15 127 10 135 12 155 46 9 17 17
36 17 43 0 19 56 87 95 114 34 24 56 29 245 51 41 4 86 13 100 19 44 18 133
41 185 47 91 11 95 13 95 44 0 20 -8 35 -25 48 -20 14 -27 31 -33 81 -9 62 -4
94 31 221 13 45 9 43 132 96 27 11 32 20 43 75 8 35 22 82 32 104 30 67 38
100 29 121 -19 49 -10 91 27 129 l36 37 -21 23 c-11 12 -21 28 -21 36 0 7 -7
21 -15 30 -23 25 -30 85 -16 128 12 34 9 48 -29 162 -48 145 -151 365 -234
498 -119 191 -304 419 -333 408 -8 -3 -44 -11 -81 -17 -132 -21 -233 38 -261
153 -6 26 -11 57 -11 70 0 13 -8 50 -17 82 -17 57 -21 61 -93 108 -88 57 -235
134 -351 183 l-82 36 49 -51 c50 -51 82 -118 83 -174 1 -35 -52 -123 -80 -131
-10 -4 -19 -10 -19 -15 0 -12 -117 -66 -165 -75 -22 -4 -47 -9 -55 -11 -8 -2
-32 -5 -54 -8 -21 -3 -44 -10 -49 -15 -6 -6 -19 -11 -29 -11 -11 0 -37 -8 -58
-19 -21 -10 -42 -16 -45 -13 -11 11 -80 32 -106 32 -14 0 -34 -9 -44 -20 -14
-15 -22 -17 -37 -9 -11 6 -31 8 -45 4 -33 -8 -17 -27 43 -50 l45 -17 -26 -14
c-14 -7 -32 -11 -40 -8 -7 3 -18 -4 -25 -15 -13 -26 -80 -31 -80 -6 0 21 -24
19 -44 -4 -21 -23 -14 -41 15 -41 11 0 34 -7 50 -16 l31 -15 -34 -25 c-18 -14
-43 -27 -56 -31 -14 -3 -21 -11 -18 -19 9 -24 -35 -44 -96 -44 -48 0 -59 3
-68 21 -7 11 -27 27 -45 35 -39 16 -115 19 -115 4 0 -16 -46 -12 -60 5 -19 23
-188 17 -204 -7 -15 -24 -1 -33 49 -33 28 0 50 6 61 17 16 16 21 15 80 -7 35
-13 84 -36 108 -50 31 -18 67 -28 123 -34 72 -7 76 -8 50 -19 -16 -7 -37 -12
-47 -12 -15 0 -149 34 -217 55 -13 4 -23 3 -23 -1 0 -12 64 -62 95 -74 26 -10
32 -24 15 -35 -6 -4 -2 -17 11 -33 14 -18 17 -28 9 -30 -7 -3 -15 0 -19 5 -3
6 -16 15 -29 22 -13 7 -27 24 -33 37 -15 40 -34 23 -34 -29 0 -38 -3 -47 -17
-47 -10 0 -18 7 -18 15 0 11 -12 15 -47 15 -65 0 -93 9 -86 26 6 17 -35 19
-87 4 l-35 -10 30 25 c17 13 35 24 41 25 6 0 17 6 23 14 10 12 8 17 -9 26 -12
7 -32 9 -44 6 -31 -8 -66 4 -66 21 0 8 -6 13 -12 10 -7 -2 -12 -16 -10 -31 3
-24 -3 -29 -37 -43 -22 -9 -43 -24 -46 -34 -14 -43 -45 -68 -93 -74 -26 -3
-59 -8 -74 -10 -21 -3 -26 -1 -21 11 3 9 0 20 -8 25 -15 9 -168 0 -184 -11 -5
-4 -22 -10 -36 -13 -22 -6 -28 -15 -34 -49 -4 -24 -7 -48 -6 -54 0 -6 -6 -29
-16 -50 -13 -31 -17 -35 -21 -19 -5 23 18 154 29 160 4 3 5 23 2 44 -6 42 22
103 52 115 8 3 15 16 15 28 1 22 18 46 103 143 23 26 34 46 27 50 -20 12 -9
34 26 51 26 12 34 22 32 38 -2 17 -11 22 -51 24 -43 3 -51 7 -77 43 -16 22
-32 55 -35 72 -4 18 -12 38 -17 45 -29 35 40 145 115 184 104 53 224 55 277 5
30 -29 32 -47 11 -117 -4 -14 -6 -41 -3 -61 7 -63 -27 -101 -116 -129 -71 -23
-74 -24 -46 -34 57 -19 323 35 391 80 12 8 29 14 37 14 22 0 57 33 58 55 1 35
-12 378 -18 453 -6 79 -6 78 -84 65z m780 -913 c0 -5 -2 -10 -4 -10 -3 0 -8 5
-11 10 -3 6 -1 10 4 10 6 0 11 -4 11 -10z m-187 -161 c8 -13 -1 -28 -48 -74
-55 -53 -61 -56 -94 -50 -42 8 -75 24 -67 32 3 4 1 12 -5 19 -8 10 -8 15 2 18
8 3 30 9 49 15 19 6 53 22 75 36 44 27 73 29 88 4z m-849 -100 c-3 -5 -10 -7
-15 -3 -5 3 -7 10 -3 15 3 5 10 7 15 3 5 -3 7 -10 3 -15z m415 -52 c14 -17 4
-27 -25 -27 -28 0 -74 20 -74 32 0 14 87 9 99 -5z m1356 -237 c21 -23 14 -50
-13 -50 -30 0 -46 24 -32 49 13 26 22 26 45 1z m-2215 -245 c0 -14 5 -33 11
-44 8 -12 9 -23 2 -36 -9 -15 -12 -11 -25 26 -15 45 -14 79 3 79 5 0 9 -11 9
-25z m1620 -385 c21 -7 22 -8 5 -9 -11 -1 -30 -8 -41 -15 -34 -24 -84 1 -57
27 8 9 61 7 93 -3z m325 0 c23 -6 16 -8 -35 -9 -45 0 -60 2 -50 9 17 11 42 11
85 0z m139 -46 c8 -3 18 -21 22 -40 3 -19 9 -34 13 -34 4 0 21 16 38 35 23 26
39 35 62 35 29 0 71 -29 71 -49 0 -21 -43 -189 -57 -221 -8 -19 -22 -69 -32
-110 -10 -41 -39 -125 -65 -187 -34 -83 -46 -125 -46 -163 0 -37 -5 -55 -20
-70 -24 -24 -88 -28 -96 -5 -8 20 55 203 72 209 17 6 18 38 3 53 -9 9 -9 23 0
57 6 25 11 58 11 75 0 16 4 32 9 35 15 10 43 -64 39 -100 -2 -19 -2 -34 2 -34
12 1 57 77 63 107 5 25 1 36 -23 62 -17 17 -30 37 -30 46 0 8 -9 19 -20 25
-25 13 -26 49 -4 114 l16 47 -28 27 c-23 21 -28 34 -26 60 4 35 3 35 26 26z
m-98 -35 c8 -13 -15 -30 -36 -26 -8 1 -16 10 -18 20 -3 12 3 17 22 17 14 0 28
-5 32 -11z m-109 -14 c27 -19 36 -60 36 -165 1 -186 -58 -240 -265 -240 -131
0 -257 41 -258 84 0 5 7 3 15 -4 21 -17 29 -7 16 18 -6 12 -11 25 -11 30 0 13
65 -2 85 -18 16 -13 109 -9 123 4 8 9 -24 29 -57 36 -34 7 -49 34 -29 53 11
11 39 16 94 18 75 2 79 1 82 -20 2 -12 10 -25 18 -28 19 -7 72 30 106 74 29
38 29 53 -1 53 -16 0 -71 64 -71 83 0 4 13 7 29 7 16 0 34 7 41 15 15 19 20
19 47 0z m-1464 -29 c7 -19 -1 -26 -30 -26 -16 0 -23 6 -23 20 0 14 7 20 24
20 13 0 26 -6 29 -14z m126 -7 c22 -24 21 -29 -25 -96 -13 -20 -23 -41 -21
-47 6 -17 93 -30 182 -27 44 1 90 -1 103 -4 32 -8 28 -41 -8 -60 -17 -9 -28
-21 -24 -27 12 -19 84 -1 126 33 37 29 85 46 143 52 17 2 20 -3 17 -31 -5 -72
-56 -131 -141 -163 -106 -40 -325 -36 -386 8 -33 24 -55 73 -68 147 -15 89 -2
168 33 206 33 36 43 37 69 9z m1135 -45 c21 -8 20 -33 -1 -56 -17 -19 -38 -23
-47 -9 -5 7 23 71 31 71 1 0 8 -3 17 -6z m-1010 -59 c21 -32 20 -55 -2 -55
-43 0 -84 60 -49 73 24 10 35 7 51 -18z m1356 -44 c16 -77 8 -148 -31 -282
-17 -57 -34 -119 -39 -138 -5 -18 -13 -38 -19 -44 -6 -6 -11 -20 -11 -32 0
-12 -5 -26 -11 -32 -6 -6 -12 -33 -14 -60 -1 -31 -6 -48 -14 -48 -13 0 -40
-41 -41 -61 0 -7 9 -14 20 -17 19 -5 19 -7 4 -42 -17 -41 -60 -84 -85 -85 -8
0 -19 -4 -25 -10 -6 -6 -20 -1 -39 14 -29 23 -29 24 -17 72 16 62 16 61 -2
111 -13 36 -73 126 -95 143 -6 5 -30 63 -35 85 -1 6 -14 29 -29 52 -15 24 -27
54 -27 68 0 14 -7 28 -16 32 -33 13 11 21 119 22 148 2 229 23 276 70 41 41
55 75 96 229 10 34 21 19 35 -47z m-807 19 c15 -12 34 -45 46 -83 12 -34 35
-82 51 -107 16 -25 30 -49 30 -53 0 -5 18 -29 40 -54 39 -44 58 -98 46 -128
-4 -12 -20 -14 -68 -12 -58 2 -67 -1 -108 -30 -54 -40 -74 -41 -132 -4 -66 42
-82 45 -131 23 -53 -24 -57 -29 -63 -89 -5 -56 -13 -66 -49 -61 -19 2 -34 14
-48 39 -20 35 -20 36 -1 61 10 14 34 36 52 48 19 14 32 31 32 44 0 20 24 103
39 136 4 8 22 22 40 32 43 22 55 39 92 133 47 121 79 147 132 105z m-233 -595
c0 -26 28 -28 66 -6 36 21 36 21 98 3 45 -14 68 -16 84 -9 22 10 69 3 137 -22
17 -6 47 -13 67 -16 35 -5 75 -31 65 -42 -3 -2 -29 1 -58 7 -30 6 -69 14 -88
17 -41 7 -201 -16 -201 -29 0 -4 7 -8 15 -8 8 0 15 -4 15 -10 0 -5 -9 -10 -20
-10 -13 0 -20 7 -20 19 0 10 -7 22 -16 25 -25 9 -72 7 -79 -4 -3 -5 -23 -10
-43 -10 -20 0 -52 -4 -70 -9 -35 -10 -85 0 -64 13 7 4 12 18 12 32 0 21 3 24
25 18 18 -4 26 -2 30 10 3 9 7 23 10 31 6 20 35 19 35 0z m234 -156 c93 0 173
-2 178 -5 5 -3 -2 -16 -17 -29 -25 -24 -33 -45 -16 -45 5 0 42 11 83 25 89 30
84 30 100 3 36 -67 15 -210 -29 -194 -24 10 -63 -34 -56 -63 5 -20 3 -22 -16
-16 -19 6 -20 4 -11 -20 14 -37 12 -55 -5 -55 -8 0 -15 5 -15 11 0 7 -11 9
-30 5 -22 -4 -32 -1 -36 9 -9 22 -24 8 -24 -23 0 -35 -14 -56 -33 -49 -8 3
-34 -1 -58 -10 -26 -9 -62 -13 -88 -10 -24 3 -57 1 -72 -3 -16 -5 -41 -5 -56
-1 -34 10 -53 4 -53 -14 0 -8 -10 -20 -22 -26 -19 -10 -24 -9 -36 10 -8 11
-23 21 -34 21 -11 0 -36 16 -55 35 -34 34 -53 38 -53 9 0 -8 -4 -14 -9 -14 -5
0 -15 26 -21 58 -13 72 -21 85 -51 92 l-24 6 25 7 c23 7 24 8 8 21 -25 19 -22
29 6 22 17 -4 26 -1 30 11 4 9 9 13 13 10 3 -4 12 -2 20 4 10 9 10 15 2 25
-21 25 -1 100 36 139 27 30 38 35 59 29 18 -4 33 -1 44 9 21 18 65 26 112 20
19 -3 111 -5 204 -4z m-536 -394 c-8 -18 -14 -22 -22 -15 -8 8 -6 15 8 26 26
19 27 18 14 -11z"/>
<path d="M2578 1633 c7 -3 16 -2 19 1 4 3 -2 6 -13 5 -11 0 -14 -3 -6 -6z"/>
<path d="M2974 4919 c3 -17 6 -62 6 -98 0 -84 15 -110 56 -96 16 6 37 27 50
50 32 57 61 76 133 82 34 3 58 9 54 13 -13 11 -265 79 -297 80 -5 0 -6 -14 -2
-31z"/>
<path d="M2310 4160 l-25 -7 30 -8 c17 -5 49 -19 72 -32 50 -28 70 -23 70 18
l0 31 -48 -6 c-29 -4 -50 -2 -54 4 -7 11 -9 11 -45 0z"/>
<path d="M2490 4140 c0 -9 12 -13 78 -24 41 -7 42 9 1 23 -40 14 -79 14 -79 1z"/>
<path d="M1785 4050 c-19 -7 -19 -8 -2 -15 10 -4 28 -3 40 2 20 9 20 10 1 15
-10 3 -28 2 -39 -2z"/>
<path d="M1758 3973 c7 -3 16 -2 19 1 4 3 -2 6 -13 5 -11 0 -14 -3 -6 -6z"/>
<path d="M3221 2976 c-8 -10 -9 -16 -1 -21 5 -3 13 1 16 10 9 22 -1 29 -15 11z"/>
<path d="M1460 2894 c0 -8 5 -12 10 -9 6 4 8 11 5 16 -9 14 -15 11 -15 -7z"/>
<path d="M1948 2853 c7 -3 16 -2 19 1 4 3 -2 6 -13 5 -11 0 -14 -3 -6 -6z"/>
<path d="M1838 2833 c7 -3 16 -2 19 1 4 3 -2 6 -13 5 -11 0 -14 -3 -6 -6z"/>
<path d="M1492 2810 c-7 -12 -8 -21 -2 -25 13 -8 30 3 30 20 0 23 -15 25 -28
5z"/>
<path d="M1486 2735 c-25 -25 -19 -42 15 -47 40 -6 91 18 87 41 -5 23 -80 28
-102 6z"/>
<path d="M1435 2720 c3 -5 8 -10 11 -10 2 0 4 5 4 10 0 6 -5 10 -11 10 -5 0
-7 -4 -4 -10z"/>
<path d="M1432 2418 c-7 -7 -12 -21 -12 -33 0 -11 -9 -38 -20 -60 -26 -50 -25
-53 7 -87 32 -33 59 -39 43 -9 -14 28 -13 61 7 120 14 46 15 54 2 67 -12 11
-17 12 -27 2z"/>
<path d="M1560 2253 c0 -4 5 -15 10 -23 8 -13 10 -13 10 2 0 9 -4 20 -10 23
-5 3 -10 3 -10 -2z"/>
<path d="M1582 2158 c5 -18 12 -42 15 -53 4 -11 12 -29 20 -40 7 -11 13 -32
13 -48 0 -16 7 -30 15 -34 26 -9 27 3 4 53 -33 76 -46 107 -54 132 -3 12 -10
22 -15 22 -5 0 -4 -15 2 -32z"/>
<path d="M4925 2013 c-11 -8 -35 -21 -52 -29 -52 -22 -40 -55 23 -67 31 -6 32
-6 43 50 6 31 10 57 8 59 -1 1 -11 -4 -22 -13z"/>
<path d="M2910 1219 c0 -5 5 -7 10 -4 6 3 10 8 10 11 0 2 -4 4 -10 4 -5 0 -10
-5 -10 -11z"/>
<path d="M2865 1179 c-10 -15 3 -25 16 -12 7 7 7 13 1 17 -6 3 -14 1 -17 -5z"/>
<path d="M3124 1017 c-7 -20 -2 -47 11 -50 14 -3 19 43 6 56 -7 7 -12 6 -17
-6z"/>
<path d="M1597 954 c-9 -10 2 -24 19 -24 8 0 14 7 14 15 0 15 -21 21 -33 9z"/>
<path d="M3190 928 c1 -13 7 -34 14 -47 11 -20 10 -28 -5 -57 -9 -19 -23 -41
-29 -49 -7 -8 -10 -27 -7 -42 5 -29 0 -53 -13 -53 -16 0 -19 63 -8 131 10 59
10 75 -2 97 -20 34 -31 33 -44 -3 -9 -26 -64 -126 -96 -175 -5 -8 -27 -44 -49
-80 -21 -36 -52 -74 -68 -86 -40 -29 -111 -56 -118 -44 -3 6 -20 10 -37 10
-28 0 -95 32 -109 52 -3 5 -19 9 -35 9 -16 1 -92 2 -169 4 -86 2 -167 9 -210
19 -38 9 -88 20 -110 23 -22 3 -61 21 -88 39 -63 44 -85 50 -101 29 -12 -16
-13 -16 -29 0 -11 10 -15 25 -11 39 7 28 -17 50 -46 41 -16 -5 -20 -2 -20 18
0 24 -37 67 -58 67 -7 0 -12 4 -12 9 0 5 -14 4 -30 -2 -17 -6 -30 -16 -30 -22
0 -6 25 -37 55 -70 56 -61 64 -75 43 -75 -6 0 -22 -10 -35 -22 -31 -29 -59
-14 -57 30 2 29 1 30 -36 25 -35 -5 -40 -3 -54 26 -17 32 -56 61 -56 41 0 -6
5 -21 12 -33 13 -25 301 -310 336 -333 13 -8 22 -20 19 -27 -2 -6 14 -21 36
-33 31 -16 41 -28 43 -50 2 -16 12 -35 24 -43 11 -7 20 -23 20 -36 0 -34 20
-83 36 -89 8 -3 14 -16 14 -30 0 -14 5 -28 10 -31 12 -7 14 -55 2 -55 -4 0
-13 5 -18 10 -7 7 -19 7 -35 1 -13 -5 -19 -10 -14 -11 6 0 51 -7 100 -15 304
-50 678 -34 980 41 76 19 308 94 317 103 15 15 -5 61 -34 76 -37 18 -47 13
-41 -19 4 -21 0 -25 -29 -31 -18 -4 -39 -12 -46 -18 -9 -7 -16 -7 -24 1 -13
13 -2 32 21 32 18 0 41 18 41 32 0 4 -13 8 -29 8 -42 0 -44 12 -11 49 24 26
28 36 20 52 -6 10 -15 19 -21 19 -6 0 -3 10 5 22 9 12 16 33 16 45 0 24 14 31
25 13 9 -15 25 -2 25 21 0 20 -15 26 -25 9 -11 -17 -25 -11 -25 10 0 11 -6 23
-12 25 -10 4 -13 46 -14 159 -1 137 -4 160 -24 210 -25 59 -40 72 -40 34z
m-1348 -265 c15 -15 28 -30 28 -35 0 -12 -27 -10 -53 5 -12 6 -24 13 -25 14
-6 3 9 43 16 43 3 0 19 -12 34 -27z m1388 -7 c0 -7 -6 -19 -14 -25 -11 -9 -15
-8 -20 5 -3 9 -4 20 0 25 8 14 34 11 34 -5z m-1290 -96 c0 -5 -4 -10 -10 -10
-5 0 -10 5 -10 10 0 6 5 10 10 10 6 0 10 -4 10 -10z m80 -20 c0 -5 -11 -10
-25 -10 -14 0 -25 5 -25 10 0 6 11 10 25 10 14 0 25 -4 25 -10z m90 -291 c0
-6 -7 -6 -20 1 -11 6 -20 15 -20 21 0 6 7 6 20 -1 11 -6 20 -15 20 -21z m750
-69 c0 -5 -2 -10 -4 -10 -3 0 -8 5 -11 10 -3 6 -1 10 4 10 6 0 11 -4 11 -10z
m-665 -40 c-3 -5 -12 -10 -20 -10 -8 0 -17 5 -20 10 -4 6 5 10 20 10 15 0 24
-4 20 -10z"/>
<path d="M1450 706 c0 -12 33 -62 50 -76 4 -3 21 -35 38 -72 23 -49 36 -66 47
-62 9 4 18 -2 24 -18 13 -35 121 -128 121 -105 0 2 -9 14 -20 27 -20 23 -26
40 -14 40 4 0 22 -13 41 -30 18 -16 40 -30 48 -30 8 0 22 -11 31 -25 16 -24
54 -35 54 -15 0 6 -9 19 -19 29 -11 11 -27 33 -35 48 -8 16 -46 56 -85 88 -38
33 -70 66 -70 73 -1 6 -6 12 -12 12 -13 0 -91 52 -143 97 -43 36 -56 40 -56
19z"/>
<path d="M1880 306 c0 -15 45 -66 58 -66 10 0 22 -29 42 -100 l13 -45 9 32 c5
18 13 33 18 33 18 0 10 18 -21 52 -17 18 -42 50 -56 71 -25 36 -63 51 -63 23z"/>
<path d="M3435 241 c-3 -5 0 -13 6 -16 5 -4 8 -13 5 -21 -3 -8 -1 -14 4 -14 6
0 10 14 10 30 0 29 -13 40 -25 21z"/>
<path d="M1790 196 c0 -8 5 -18 10 -21 6 -3 10 -14 10 -24 0 -35 33 -60 99
-75 l63 -15 -21 23 c-11 12 -21 32 -21 44 0 12 -4 22 -10 22 -5 0 -10 6 -10
14 0 14 -29 26 -92 40 -21 5 -28 3 -28 -8z"/>
</g>
</svg>
